<?xml version="1.0" encoding="utf-8"?>
<!-- Generator: Adobe Illustrator 24.1.0, SVG Export Plug-In . SVG Version: 6.00 Build 0)  -->
<svg version="1.1" id="Layer_1" xmlns="http://www.w3.org/2000/svg" xmlns:xlink="http://www.w3.org/1999/xlink" x="0px" y="0px"
	 viewBox="0 0 500 500" style="enable-background:new 0 0 500 500;" xml:space="preserve">
<style type="text/css">
	.st0{fill:#FFFFFF;}
</style>
<path class="st0" d="M148.1,1C67,1,1,67,1,148.1v203.7C1,433,67,499,148.1,499h203.7C433,499,499,433,499,351.9V148.1
	C499,67,433,1,351.9,1H148.1z M385.8,91.5c12.5,0,22.6,10.2,22.6,22.6s-10.2,22.6-22.6,22.6s-22.6-10.2-22.6-22.6
	S373.4,91.5,385.8,91.5z M250,125.5c68.7,0,124.5,55.8,124.5,124.5S318.7,374.5,250,374.5S125.5,318.7,125.5,250
	S181.3,125.5,250,125.5z M250,148.1c-56.1,0-101.9,45.7-101.9,101.9S193.9,351.9,250,351.9S351.9,306.1,351.9,250
	S306.1,148.1,250,148.1z"/>
</svg>
