<?xml version="1.0" encoding="utf-8"?>
<!-- Generator: Adobe Illustrator 24.1.0, SVG Export Plug-In . SVG Version: 6.00 Build 0)  -->
<svg version="1.1" id="Layer_1" xmlns="http://www.w3.org/2000/svg" xmlns:xlink="http://www.w3.org/1999/xlink" x="0px" y="0px"
	 viewBox="0 0 599.7 500" style="enable-background:new 0 0 599.7 500;" xml:space="preserve">
<style type="text/css">
	.st0{fill:#FFFFFF;}
</style>
<path class="st0" d="M395.5,13.4L395.5,13.4l27.5-0.1l10,2c6.7,1.3,12.7,3,18.2,5.1c5.5,2.1,10.7,4.6,15.8,7.4s9.7,5.7,13.9,8.6
	c4.1,2.9,7.8,6,11.1,9.2c3.2,3.3,8.3,4.1,15.2,2.5s14.2-3.8,22.2-6.6s15.7-6,23.5-9.5c7.7-3.5,12.5-5.8,14.2-6.7
	c1.7-1,2.5-1.5,2.6-1.6l0.1-0.2l0.5-0.3l0.5-0.3l0.5-0.3l0.5-0.3l0.1-0.2l0.2-0.1l0.2-0.1l0.1-0.2l0.5-0.2l0.5-0.1l-0.2,0.8
	l-0.2,0.8l-0.3,0.8l-0.3,0.8l-0.3,0.5l-0.3,0.5l-0.3,0.8c-0.2,0.5-0.4,1.2-0.5,2.1c-0.2,0.9-1.9,4.4-5,10.6
	c-3.2,6.2-7.1,12.4-11.9,18.7c-4.8,6.3-9,11.1-12.8,14.4c-3.8,3.3-6.3,5.6-7.5,6.9c-1.2,1.3-2.7,2.6-4.5,3.7l-2.6,1.7l-0.5,0.3
	l-0.5,0.3l-0.1,0.2l-0.2,0.1l-0.2,0.1l-0.1,0.2l-0.5,0.3l-0.5,0.3l-0.1,0.2l-0.2,0.1l-0.2,0.1l-0.1,0.2l-0.1,0.2l-0.2,0.1l-0.2,0.1
	l-0.1,0.2h2.6l14.8-3.2c9.9-2.1,19.3-4.7,28.2-7.7l14.2-4.8l1.6-0.5l0.8-0.3l0.5-0.3l0.5-0.3l0.5-0.3l0.5-0.3l1.1-0.2l1.1-0.1v1.1
	l-0.3,0.1l-0.3,0.2l-0.1,0.2l-0.2,0.1l-0.2,0.1l-0.1,0.2l-0.1,0.2l-0.2,0.1l-0.2,0.1l-0.1,0.2l-0.1,0.2l-0.2,0.1l-0.3,0.5l-0.3,0.5
	l-0.2,0.1c-0.1,0.1-2.3,3.1-6.7,9c-4.4,5.9-6.8,8.9-7.1,9c-0.4,0.1-0.8,0.6-1.5,1.6c-0.6,1-4.3,4.9-11.2,11.8
	c-6.9,6.9-13.6,13-20.2,18.3c-6.6,5.4-10,12-10,19.8c-0.1,7.8-0.5,16.6-1.2,26.5c-0.7,9.9-2,20.5-4,31.9c-1.9,11.4-4.9,24.4-9,38.8
	c-4.1,14.4-9,28.5-14.8,42.2c-5.8,13.7-11.9,26-18.2,37c-6.3,10.9-12.1,20.2-17.4,27.7c-5.3,7.6-10.6,14.7-16.1,21.4
	c-5.5,6.7-12.3,14.2-20.7,22.6c-8.4,8.3-13,12.9-13.7,13.7c-0.8,0.8-4.3,3.7-10.4,8.6c-6,5-12.6,10.1-19.5,15.1
	c-6.9,5-13.3,9.2-19.1,12.5c-5.8,3.4-12.8,7.2-21,11.5c-8.2,4.3-17,8.3-26.5,12c-9.5,3.7-19.5,7.1-30.1,10.3
	c-10.5,3.2-20.8,5.6-30.6,7.4c-9.9,1.8-21,3.3-33.5,4.5l-18.7,1.9v0.3h-34.3v-0.3l-4.5-0.3c-3-0.2-5.5-0.4-7.4-0.5
	c-1.9-0.2-9.2-1.1-21.9-2.9s-22.6-3.5-29.8-5.3s-17.9-5.1-32.2-10c-14.2-4.9-26.5-9.9-36.6-15c-10.1-5-16.4-8.2-19-9.5
	c-2.5-1.3-5.4-2.9-8.6-4.9L7,437.5l-0.1-0.2l-0.2-0.1l-0.2-0.1l-0.1-0.2l-0.5-0.3l-0.5-0.3l-0.1-0.2l-0.2-0.1L4.9,436l-0.1-0.1
	l-0.1-0.2l-0.2-0.1H4.4v-1.1l0.5,0.1l0.5,0.2l2.4,0.3c1.6,0.2,5.9,0.4,12.9,0.8c7,0.4,14.5,0.4,22.4,0c7.9-0.4,16-1.1,24.3-2.4
	c8.3-1.2,18-3.4,29.3-6.3c11.3-3,21.6-6.5,31-10.7c9.4-4.1,16.1-7.2,20.1-9.3c3.9-2,10-5.7,18-11.2l12.2-8.2l0.1-0.2l0.2-0.1
	l0.2-0.1l0.1-0.2l0.1-0.2l0.2-0.1l0.2-0.1l0.1-0.2l0.5-0.2l0.5-0.1l0.1-0.5l0.2-0.5l0.2-0.1l0.1-0.2l-4.2-0.3
	c-2.8-0.2-5.6-0.4-8.2-0.5c-2.6-0.2-6.8-1-12.4-2.4c-5.6-1.4-11.7-3.5-18.2-6.3c-6.5-2.8-12.8-6.2-19-10c-6.2-3.9-10.6-7.1-13.4-9.7
	c-2.7-2.5-6.2-6.1-10.6-10.8c-4.3-4.7-8-9.5-11.2-14.4c-3.2-4.9-6.2-10.6-9.1-17.1l-4.4-9.6l-0.3-0.8l-0.3-0.8l-0.2-0.5l-0.1-0.5
	l0.8,0.1l0.8,0.2l5.8,0.8c3.9,0.5,9.9,0.7,18.2,0.5c8.3-0.2,14-0.5,17.2-1.1c3.2-0.5,5.1-0.9,5.8-1.1l1.1-0.3l1.3-0.3l1.3-0.3
	l0.1-0.2l0.2-0.1l0.2-0.1l0.1-0.2l-1.1-0.3l-1.1-0.3l-1.1-0.3l-1.1-0.3l-1.1-0.3c-0.7-0.2-1.9-0.5-3.7-1.1
	c-1.8-0.5-6.5-2.5-14.2-5.8s-13.9-6.6-18.5-9.8c-4.6-3.2-9-6.7-13.1-10.4c-4.1-3.8-8.6-8.7-13.6-14.7c-4.9-6-9.3-12.9-13.2-20.9
	s-6.8-15.5-8.7-22.7c-1.9-7.2-3.2-14.5-3.8-21.9l-1-11.1l0.5,0.1l0.5,0.2l0.5,0.3l0.5,0.3l0.5,0.3l0.5,0.3l8.2,3.7
	c5.5,2.5,12.2,4.6,20.3,6.3c8.1,1.8,12.9,2.7,14.5,2.9l2.4,0.3h4.8l-0.1-0.2l-0.2-0.1l-0.2-0.1l-0.1-0.2l-0.1-0.2l-0.2-0.1l-0.2-0.1
	l-0.1-0.2l-0.5-0.3l-0.5-0.3l-0.1-0.2l-0.2-0.1l-0.2-0.1l-0.1-0.2l-0.5-0.3l-0.5-0.3l-0.1-0.2c-0.1-0.1-1.6-1.2-4.5-3.4
	c-2.9-2.2-5.9-5.1-9.1-8.6c-3.2-3.5-6.3-7.2-9.5-11.1c-3.2-3.9-6-8-8.4-12.4c-2.5-4.4-5.1-10-7.8-16.8c-2.7-6.7-4.8-13.6-6.2-20.4
	c-1.4-6.9-2.2-13.6-2.4-20.3c-0.2-6.7,0-12.4,0.5-17.2c0.5-4.8,1.6-10.1,3.2-16.1c1.6-6,3.9-12.3,6.9-19l4.5-10l0.3-0.8l0.3-0.8
	l0.2-0.1l0.1-0.2l0.1-0.2l0.2-0.1l0.2,0.1l0.1,0.2l0.1,0.2l0.2,0.1l0.2,0.1l0.1,0.2l0.1,0.2l0.2,0.1l0.3,0.5l0.3,0.5l0.2,0.1
	l0.1,0.2l7.1,7.9c4.8,5.3,10.4,11.2,16.9,17.7c6.5,6.5,10.1,9.9,10.8,10.1c0.7,0.3,1.6,1.1,2.6,2.4c1.1,1.3,4.6,4.4,10.6,9.3
	c6,4.9,13.8,10.6,23.5,17.2s20.4,12.9,32.2,19.3s24.5,12,38,17.2s23.1,8.4,28.5,10c5.5,1.6,14.8,3.6,28,6.1
	c13.2,2.5,23.2,4.1,29.8,4.8s11.3,1.1,13.7,1.2l3.7,0.1l-0.1-0.8l-0.2-0.8l-1.1-6.5c-0.7-4.4-1.1-10.6-1.1-18.5s0.6-15.2,1.9-21.9
	c1.2-6.7,3.1-13.5,5.6-20.3c2.5-6.9,4.9-12.4,7.2-16.5c2.4-4.1,5.5-8.8,9.4-14.1c3.9-5.3,8.9-10.7,15-16.4s13.2-10.6,21.1-15
	c7.9-4.4,15.2-7.7,21.9-10c6.7-2.3,12.3-3.8,16.9-4.5C393.3,13.9,395.5,13.5,395.5,13.4z"/>
</svg>
